PathFileType	4	(X/Y/Z)	C:/Users/opensim2020/Desktop/walking_exp_matlab/subject06_walking15_straight_03.trc	
DataRate	CameraRate	NumFrames	NumMarkers	Units	OrigDataRate	OrigDataStartFrame	OrigNumFrames	
100.00	100.00	7	47	mm	100.00	2305	193	
Frame#	Time	LFHD			RFHD			LBHD			RBHD			C7			T10			CLAV			STRN			RBAK			LSHO			LUPA			LELB			LFRM			LWRA			LWRB			LFIN			RSHO			RUPA			RELB			RFRM			RWRA			RWRB			RFIN			LASI			RASI			LPSI			RPSI			LTHI			LKNE			LTIB			LANK			LHEE			LTOE			RTHI			RKNE			RTIB			RANK			RHEE			RTOE			*39			*40			*41			*42			*43			*44			*45			*46			
		X1	Y1	Z1	X2	Y2	Z2	X3	Y3	Z3	X4	Y4	Z4	X5	Y5	Z5	X6	Y6	Z6	X7	Y7	Z7	X8	Y8	Z8	X9	Y9	Z9	X10	Y10	Z10	X11	Y11	Z11	X12	Y12	Z12	X13	Y13	Z13	X14	Y14	Z14	X15	Y15	Z15	X16	Y16	Z16	X17	Y17	Z17	X18	Y18	Z18	X19	Y19	Z19	X20	Y20	Z20	X21	Y21	Z21	X22	Y22	Z22	X23	Y23	Z23	X24	Y24	Z24	X25	Y25	Z25	X26	Y26	Z26	X27	Y27	Z27	X28	Y28	Z28	X29	Y29	Z29	X30	Y30	Z30	X31	Y31	Z31	X32	Y32	Z32	X33	Y33	Z33	X34	Y34	Z34	X35	Y35	Z35	X36	Y36	Z36	X37	Y37	Z37	X38	Y38	Z38	X39	Y39	Z39	X40	Y40	Z40	X41	Y41	Z41	X42	Y42	Z42	X43	Y43	Z43	X44	Y44	Z44	X45	Y45	Z45	X46	Y46	Z46	X47	Y47	Z47	

169	1.680	1376.38904	594.70685	1644.50452	1508.32581	603.56903	1636.47607	1385.66602	460.90759	1592.36536	1514.66064	469.74243	1589.09875	1438.05872	461.47507	1434.50830	1446.89026	425.63730	1105.22534	1440.64771	570.74701	1356.61609	1433.27063	609.97681	1182.18396	1511.56226	385.11960	1264.34583	1278.59998	519.13483	1389.42371	1199.53748	559.40332	1194.85901	1182.42017	593.44421	1087.98071	1167.31201	706.81665	991.24542	1218.87866	826.06244	956.70367	1181.52356	791.67322	908.11121	1183.49805	878.36121	886.40430	1601.11279	520.49878	1388.12659	1684.44446	449.56503	1198.50171	1694.59192	438.50919	1075.73059	1710.73657	431.88617	955.37787	1677.50854	465.05734	806.58563	1718.10327	412.92068	818.77655	1718.74402	432.89679	736.29016	1336.23547	601.19159	943.65247	1557.73035	608.94318	954.49988	1370.87170	443.18991	971.24432	1539.78943	455.00397	973.75909	1292.12695	502.47433	632.17365	1318.48767	470.44421	470.09961	1326.51135	345.27960	242.77792	1369.06470	268.59927	87.64690	1409.72949	219.81195	84.89217	1384.40515	401.26678	38.83075	1632.02588	625.45850	628.82605	1606.39709	676.37823	512.80817	1599.82922	713.65826	255.39886	1559.97559	772.97076	77.19655	1507.80762	749.89191	49.48282	1577.36816	931.94568	68.64531	1440.59619	498.35541	1685.77673																					 
170	1.690	1377.23584	605.53516	1643.64758	1509.15674	614.37921	1635.73291	1386.44287	471.85324	1591.29919	1515.41833	480.59769	1588.08459	1438.91614	472.63419	1433.54822	1447.77881	437.21649	1104.29187	1441.54736	581.96997	1355.69397	1434.19006	621.35339	1181.34778	1512.27771	396.24243	1263.27869	1279.51672	530.44153	1388.40918	1200.59985	571.14911	1193.97339	1183.61121	605.36017	1087.19836	1169.16760	719.42456	991.60675	1220.65918	839.33832	958.97229	1183.37292	805.58911	909.75568	1185.53259	892.62201	889.33429	1601.99609	531.46082	1387.16382	1685.28040	460.35800	1197.55981	1695.42957	449.19617	1074.88892	1711.58557	442.40146	954.43127	1678.55090	475.32211	805.58124	1718.96582	423.09149	817.89044	1719.77234	442.87366	735.36371	1336.83801	612.63483	942.47571	1558.53894	620.86182	953.83014	1372.11011	454.67960	970.12268	1540.99866	466.99500	972.96912	1292.79272	511.92639	631.43762	1319.04260	478.30109	469.68613	1326.88892	349.30048	244.24139	1368.79358	270.05646	90.41118	1409.39587	221.17134	88.50462	1384.27881	401.66525	38.91394	1632.73535	636.27332	627.68677	1606.26929	686.19653	511.47183	1599.18652	726.53253	254.54771	1559.42969	790.10016	77.42596	1507.54077	767.61560	48.72707	1575.55115	949.56354	73.54917	1441.35583	509.13501	1684.82117																					 
171	1.700	1378.07715	616.38196	1642.88000	1510.02637	625.22766	1635.06116	1387.28003	482.74500	1590.27319	1516.25037	491.38898	1587.12170	1439.81897	483.81943	1432.62549	1448.68213	448.97552	1103.34607	1442.58240	593.28119	1354.93787	1435.13916	632.94678	1180.59753	1512.98730	407.68124	1262.23303	1280.58887	541.71320	1387.47095	1201.75964	582.84991	1193.16113	1184.62646	617.48212	1086.52759	1170.31433	732.39319	991.85333	1222.44458	852.14819	960.73816	1185.27698	819.00153	911.04681	1187.47192	906.50208	891.49976	1602.93445	542.49750	1386.32202	1686.02771	471.45264	1196.75464	1696.23169	460.30438	1073.97620	1712.25366	453.40860	953.55096	1679.50146	485.91608	804.61664	1719.95056	433.67178	817.12646	1720.80408	453.29752	734.53674	1337.92725	624.27814	941.46692	1559.54272	632.93561	953.24255	1373.43945	466.37491	969.04321	1542.27710	479.07727	972.37335	1293.69763	521.40674	630.89063	1319.91907	486.59079	469.23441	1327.47083	353.87256	246.03490	1368.70129	271.68961	93.52567	1409.24207	222.85001	92.56504	1384.36023	402.12466	39.04661	1633.23596	647.08679	626.49811	1606.13818	696.23883	510.47543	1598.97473	738.82123	253.83232	1559.08618	804.80774	77.20325	1507.44434	782.11383	47.72874	1573.73804	964.69714	76.58146	1442.13403	519.84717	1683.88989																					 
172	1.710	1378.95508	627.21765	1642.16064	1510.47412	635.61310	1634.29883	1388.17712	493.67105	1589.33154	1517.04431	502.30521	1586.28699	1440.81897	495.13159	1431.71228	1449.64648	461.00647	1102.42883	1443.52026	604.57275	1354.11841	1436.17432	644.72638	1179.94897	1513.85938	419.22141	1261.25940	1281.69263	553.03625	1386.61743	1203.02930	594.41663	1192.36951	1185.96533	629.18445	1085.60815	1172.04126	744.55127	992.01508	1224.26587	864.47540	962.03711	1187.09021	831.84979	912.00067	1189.43848	919.59052	893.29877	1603.89270	553.71680	1385.53760	1687.02466	482.60596	1195.90051	1697.17224	471.61642	1073.20288	1713.40906	464.48035	952.82458	1680.67175	497.02396	803.88098	1720.99646	444.63477	816.40100	1722.01135	464.16489	733.87817	1338.60071	635.63824	940.29175	1560.54761	645.19678	952.66467	1374.88696	478.72446	968.06073	1543.53101	491.43033	971.88263	1294.76965	531.28772	630.34741	1320.57495	495.41064	468.83990	1327.93445	358.45547	248.01305	1368.70044	273.61237	97.02505	1409.26001	224.77742	96.99245	1384.36658	402.52817	39.18462	1633.58521	658.19061	625.47656	1605.96265	706.90436	509.76123	1599.15369	751.00916	253.13795	1558.85352	817.21503	76.44033	1507.98193	794.75208	46.18190	1571.55737	977.05823	77.72237	1442.91443	530.60400	1683.04175																					 
173	1.720	1379.91492	638.01727	1641.50903	1511.79980	646.83356	1633.93579	1389.12036	504.59576	1588.38220	1518.01050	513.17084	1585.48267	1441.94604	506.27826	1430.85449	1450.73792	472.86975	1101.56787	1444.74377	616.17816	1353.65137	1437.16028	656.57013	1179.38818	1514.83850	431.02017	1260.26013	1282.89282	564.25049	1385.77612	1204.33716	605.90387	1191.59631	1187.44739	640.27515	1084.83350	1173.59094	756.19702	991.79785	1226.08252	876.30487	962.86603	1188.94226	844.14386	912.51044	1191.50122	931.92200	894.53784	1604.91980	565.05573	1384.86707	1688.02539	494.01428	1195.16858	1698.13831	483.15451	1072.46851	1714.38367	475.91583	952.12109	1681.85559	508.35403	803.12952	1722.09082	455.93848	815.73431	1723.27905	475.42911	733.16113	1339.28735	647.41223	939.30573	1561.65454	657.75470	952.21625	1376.25146	490.58099	967.34277	1544.78088	504.03378	971.45654	1296.13672	541.28632	629.69879	1321.59460	504.98691	468.28433	1328.20142	363.60938	250.27621	1368.79944	275.81110	100.85887	1409.53516	227.00266	101.93645	1384.39001	403.01602	39.30919	1633.62500	669.67871	624.52118	1606.01721	718.33008	509.49118	1599.61707	762.77063	252.25780	1558.59717	826.93195	74.82902	1507.85986	803.44501	44.13902	1569.19531	986.45416	77.55624	1443.82336	541.29608	1682.23730																					 
174	1.730	1380.85754	648.85999	1640.96533	1512.74097	657.68713	1633.42188	1390.10364	515.43085	1587.49622	1518.96179	523.98651	1584.66772	1443.01331	517.59753	1429.92664	1451.99487	485.12070	1100.62500	1445.86475	627.73273	1353.15906	1438.31543	668.65802	1178.92773	1515.89648	442.85037	1259.21960	1284.08215	575.45782	1384.93018	1205.78979	617.21271	1190.78650	1189.17688	650.97461	1083.85437	1175.21118	767.45734	991.46222	1227.85718	887.67535	963.23529	1190.78320	855.81018	912.65753	1193.67236	943.75262	895.08472	1605.94617	576.47522	1384.24475	1689.10889	505.59100	1194.52808	1699.19739	494.84930	1071.82837	1715.49219	487.61719	951.47644	1682.99866	520.08649	802.41370	1723.20349	467.62982	815.06873	1724.51770	487.04163	732.54816	1340.53870	659.60046	938.71887	1562.70483	670.59137	951.83398	1377.77393	503.30508	966.50586	1545.99878	517.00061	970.90375	1297.32471	551.96808	628.96082	1322.62671	515.48444	467.65051	1328.94507	369.43866	252.54247	1369.02490	278.41171	105.05346	1409.93689	229.68318	107.28405	1384.75171	403.48380	39.59644	1633.55090	681.76447	623.81885	1605.67371	730.79962	509.48853	1600.21350	773.90930	251.12971	1558.41309	834.16229	72.46582	1508.25281	809.31299	41.70727	1566.33789	993.12036	75.93217	1444.69580	551.98669	1681.46118																					 
175	1.740	1381.80115	659.55481	1640.33398	1513.69702	668.53369	1632.92493	1391.15857	526.28894	1586.65344	1519.97424	535.01593	1583.93750	1444.24341	528.73883	1428.93384	1453.40137	497.72632	1099.66052	1446.99817	639.27997	1352.53406	1439.50452	680.98340	1178.55408	1517.12402	454.82947	1258.17578	1285.37537	586.66077	1384.03735	1207.37280	628.37183	1189.93579	1190.94861	661.72913	1082.81543	1177.11438	778.02661	990.57886	1229.53760	898.59320	963.12512	1192.38171	867.06616	912.41949	1195.39282	955.18091	895.16028	1607.02356	588.03967	1383.66174	1690.19104	517.45111	1193.97485	1700.34326	506.77798	1071.18921	1716.68677	499.67868	950.87531	1684.28369	532.22546	801.88666	1724.44702	479.67667	814.49060	1725.80493	499.19531	731.99030	1341.24182	671.83624	937.87360	1563.68909	683.74469	951.43140	1379.25574	515.72260	965.94745	1547.36414	530.24493	970.28198	1298.35925	563.24512	628.05774	1323.84119	526.73395	466.62665	1329.97620	376.04614	254.93719	1369.53271	281.47885	109.66270	1410.54846	233.01285	113.09741	1384.89355	404.29623	39.87617	1633.27173	694.86102	623.45258	1604.55200	744.76941	510.11426	1600.80310	783.79907	249.47073	1558.11011	839.48450	69.76883	1509.02454	813.21344	40.32172	1563.28796	997.82758	71.97728	1445.62024	562.62024	1680.68225																					 
